<svg width="196" height="40" viewBox="0 0 196 40" fill="none" xmlns="http://www.w3.org/2000/svg">
<path d="M186.672 9.86995C187.36 9.52566 188.06 9.35352 188.77 9.35352C189.48 9.35352 190.05 9.57946 190.481 10.0313C190.932 10.4832 191.158 11.1503 191.158 12.0325C191.158 12.9148 191.105 13.9154 190.997 15.0343C192.611 15.0343 194.149 14.8084 195.613 14.3565C195.871 14.7869 196 15.2925 196 15.8735C196 16.433 195.742 16.8956 195.225 17.2615C194.73 17.6057 194.225 17.7779 193.708 17.7779C193.192 17.7779 192.611 17.7133 191.965 17.5842C191.32 17.4551 190.9 17.3798 190.706 17.3583C190.685 17.5519 190.62 17.9393 190.513 18.5203C190.427 19.1013 190.351 19.6069 190.287 20.0373C190.115 21.2208 190.029 22.4904 190.029 23.846C190.029 26.794 190.986 28.268 192.901 28.268C193.611 28.268 194.429 28.0206 195.354 27.5256C195.634 27.9345 195.774 28.4617 195.774 29.1072C195.774 29.7528 195.419 30.2584 194.709 30.6243C194.02 30.9685 193.192 31.1407 192.224 31.1407C188.436 31.1407 186.543 28.9889 186.543 24.6852C186.543 24.0612 186.629 22.9315 186.801 21.2961C186.995 19.6607 187.091 18.3374 187.091 17.326C186.059 17.3906 185.23 17.5735 184.606 17.8747C184.348 17.4874 184.219 17.0463 184.219 16.5514C184.219 16.0349 184.402 15.6153 184.767 15.2925C185.133 14.9482 185.585 14.7761 186.123 14.7761C186.661 14.7761 187.016 14.7869 187.188 14.8084C187.21 14.6362 187.221 14.4103 187.221 14.1306C187.221 12.5167 187.038 11.0965 186.672 9.86995Z" fill="white"/>
<path d="M182.575 15.7443C181.994 18.2189 181.703 20.7042 181.703 23.2003C181.703 25.6749 181.983 28.128 182.542 30.5595C181.768 30.8178 180.972 30.9469 180.154 30.9469C179.336 30.9469 178.766 30.7102 178.443 30.2368C178.12 29.7419 177.959 29.0425 177.959 28.1387C177.959 27.2135 178.099 25.9547 178.379 24.3623C176.851 27.6331 175.377 29.6988 173.957 30.5595C173.311 30.9469 172.644 31.1405 171.955 31.1405C170.32 31.1405 169.05 30.538 168.147 29.333C167.243 28.1065 166.791 26.5894 166.791 24.7819C166.791 22.0276 167.555 19.6175 169.083 17.5518C170.61 15.4645 172.59 14.4209 175.022 14.4209C177.475 14.4209 179.992 14.862 182.575 15.7443ZM178.346 17.6809C177.206 17.3366 176.238 17.1645 175.441 17.1645C173.827 17.1645 172.622 17.5195 171.826 18.2296C171.095 20.0371 170.729 21.877 170.729 23.749C170.729 24.7389 170.879 25.7395 171.181 26.7508C171.504 27.7622 171.988 28.2679 172.633 28.2679C173.386 28.2679 174.355 27.1597 175.538 24.9433C176.722 22.7269 177.658 20.3061 178.346 17.6809Z" fill="white"/>
<path d="M163.958 17.9068L163.635 24.8142C163.635 26.9015 163.936 28.8811 164.539 30.7532C163.936 31.0114 163.247 31.1405 162.473 31.1405C160.644 31.1405 159.729 30.1184 159.729 28.0742C159.729 27.1489 159.848 25.5996 160.084 23.4263C160.321 21.2314 160.439 19.8542 160.439 19.2948C160.439 18.2189 159.998 17.6809 159.116 17.6809C158.148 17.6809 156.986 18.6707 155.63 20.6504C154.296 22.6301 153.629 24.1794 153.629 25.2983C153.736 26.9983 154.038 28.6875 154.533 30.3659C153.715 30.6241 153.026 30.7532 152.467 30.7532C150.638 30.7532 149.723 29.7311 149.723 27.6869C149.723 26.8261 149.842 25.3844 150.078 23.3617C150.315 21.339 150.433 20.0694 150.433 19.553C150.433 18.4771 149.949 17.9391 148.981 17.9391C148.314 17.9391 147.55 18.434 146.689 19.4239C145.828 20.4137 145.097 21.5111 144.494 22.7162C143.913 23.8997 143.601 24.8465 143.558 25.5566C143.666 27.4071 143.881 29.0748 144.204 30.5595C143.515 30.8178 142.794 30.9469 142.041 30.9469C141.31 30.9469 140.707 30.7747 140.234 30.4304C139.782 30.0646 139.556 29.5697 139.556 28.9457C139.556 28.3001 139.653 27.1597 139.846 25.5243C140.04 23.8674 140.137 22.232 140.137 20.6181C140.137 18.9828 139.889 17.1107 139.395 15.0019C140.083 14.7437 140.815 14.6146 141.589 14.6146C142.364 14.6146 142.988 14.8405 143.461 15.2924C143.956 15.7443 144.204 16.3468 144.204 17.0999C144.204 17.4872 144.129 18.434 143.978 19.9403C144.774 18.5201 145.785 17.2936 147.012 16.2607C148.239 15.2063 149.465 14.6791 150.692 14.6791C152.865 14.6791 153.952 15.8411 153.952 18.1651C153.952 18.7461 153.919 19.3916 153.855 20.1017C154.651 18.5954 155.673 17.2721 156.921 16.1316C158.191 14.9911 159.449 14.4209 160.698 14.4209C162.871 14.4209 163.958 15.5829 163.958 17.9068Z" fill="white"/>
<path d="M121.844 25.5885L122.166 20.9406C122.166 18.8533 121.865 16.8737 121.263 15.0016C121.865 14.7434 122.608 14.6143 123.49 14.6143C125.211 14.6143 126.072 15.5718 126.072 17.4869C126.072 18.3477 125.954 19.5634 125.717 21.1343C125.48 22.7051 125.362 23.7918 125.362 24.3943C125.362 24.9753 125.373 25.4056 125.394 25.6854C125.416 25.9436 125.47 26.2556 125.556 26.6214C125.685 27.353 126.104 27.7188 126.814 27.7188C127.546 27.7188 128.321 27.1486 129.138 26.0081C129.978 24.8462 130.645 23.5658 131.14 22.1671C131.656 20.7685 131.914 19.6603 131.914 18.8426C131.807 17.1426 131.624 15.8623 131.365 15.0016C132.054 14.7434 132.753 14.6143 133.464 14.6143C134.195 14.6143 134.798 14.8402 135.271 15.2921C135.766 15.744 136.013 16.3465 136.013 17.0996C136.013 28.8485 133.862 35.8958 129.558 38.2412C128.59 38.7577 127.492 39.0159 126.266 39.0159C125.039 39.0159 123.963 38.6931 123.038 38.0476C122.134 37.402 121.682 36.4983 121.682 35.3363C121.682 34.5616 121.973 33.9053 122.554 33.3674C123.135 32.8509 123.823 32.5927 124.62 32.5927C124.792 32.5927 125.007 32.6142 125.265 32.6573C125.201 32.937 125.168 33.1845 125.168 33.3996C125.168 35.2932 125.825 36.24 127.137 36.24C127.933 36.24 128.654 35.8097 129.3 34.949C129.945 34.0882 130.462 33.0338 130.849 31.7858C131.602 29.2466 131.979 26.9442 131.979 24.8784C131.333 26.6214 130.451 28.0309 129.332 29.1068C128.235 30.1612 127.04 30.6884 125.749 30.6884C123.146 30.6884 121.844 28.9884 121.844 25.5885Z" fill="white"/>
<path d="M113.722 7.12659C114.411 6.86837 115.121 6.73926 115.853 6.73926C116.584 6.73926 117.187 6.98672 117.66 7.48164C118.134 7.95504 118.37 8.55755 118.37 9.28917C118.37 9.99927 118.263 11.6992 118.047 14.389C117.832 17.0572 117.725 19.6932 117.725 22.2969C117.725 24.8791 117.983 27.6334 118.499 30.5599C117.725 30.8181 116.918 30.9472 116.079 30.9472C114.658 30.9472 113.948 29.9466 113.948 27.9454C113.948 27.2784 114.088 26.0841 114.368 24.3627C113.464 26.2778 112.657 27.698 111.947 28.6233C111.258 29.5485 110.581 30.2049 109.914 30.5922C109.268 30.958 108.579 31.1409 107.848 31.1409C106.212 31.1409 104.954 30.5384 104.071 29.3334C103.211 28.1283 102.78 26.6436 102.78 24.8791C102.78 23.1146 103.092 21.4577 103.716 19.9084C104.362 18.3376 105.319 17.0357 106.589 16.0028C107.88 14.9485 109.246 14.4213 110.688 14.4213C112.13 14.4213 113.378 14.6149 114.432 15.0022C114.389 12.2264 114.153 9.60118 113.722 7.12659ZM114.432 17.7458C113.378 17.3585 112.238 17.1648 111.011 17.1648C109.784 17.1648 108.73 17.5199 107.848 18.23C107.116 19.9729 106.75 21.9203 106.75 24.0722C106.75 25.062 106.89 26.0088 107.17 26.9126C107.45 27.8163 107.912 28.2682 108.558 28.2682C109.548 28.2682 110.667 27.16 111.915 24.9437C113.184 22.7273 114.024 20.328 114.432 17.7458Z" fill="white"/>
<path d="M92.753 31.3345C90.386 31.3345 88.6431 30.6459 87.5241 29.2688C86.4052 27.8701 85.8457 25.9334 85.8457 23.4588C85.8457 20.9627 86.5881 18.8002 88.0728 16.9711C89.5576 15.1421 91.462 14.2275 93.7859 14.2275C98.563 14.2275 100.951 16.9173 100.951 22.2969C100.951 24.8145 100.177 26.9556 98.6275 28.72C97.0782 30.463 95.12 31.3345 92.753 31.3345ZM90.4291 17.778C90.0418 19.0261 89.8481 20.2742 89.8481 21.5222C89.8481 22.7703 89.8911 23.7386 89.9772 24.4272C90.0633 25.1157 90.2247 25.8043 90.4614 26.4929C90.9563 27.8916 91.9246 28.5909 93.3663 28.5909C94.8296 28.5909 95.7871 28.2036 96.239 27.429C96.7124 26.6543 96.9491 25.46 96.9491 23.8462C96.9491 19.2628 95.8624 16.9711 93.6891 16.9711C92.441 16.9711 91.3544 17.2401 90.4291 17.778Z" fill="white"/>
<path d="M76.1417 31.3345C73.7747 31.3345 72.0317 30.6459 70.9128 29.2688C69.7938 27.8701 69.2344 25.9334 69.2344 23.4588C69.2344 20.9627 69.9768 18.8002 71.4615 16.9711C72.9463 15.1421 74.8506 14.2275 77.1746 14.2275C81.9516 14.2275 84.3401 16.9173 84.3401 22.2969C84.3401 24.8145 83.5655 26.9556 82.0162 28.72C80.4669 30.463 78.5087 31.3345 76.1417 31.3345ZM73.8178 17.778C73.4304 19.0261 73.2368 20.2742 73.2368 21.5222C73.2368 22.7703 73.2798 23.7386 73.3659 24.4272C73.4519 25.1157 73.6133 25.8043 73.85 26.4929C74.3449 27.8916 75.3133 28.5909 76.755 28.5909C78.2182 28.5909 79.1758 28.2036 79.6277 27.429C80.1011 26.6543 80.3378 25.46 80.3378 23.8462C80.3378 19.2628 79.2511 16.9711 77.0778 16.9711C75.8297 16.9711 74.743 17.2401 73.8178 17.778Z" fill="white"/>
<path d="M58.8087 20.6181C58.8087 24.7711 59.0346 28.0849 59.4865 30.5595C58.7979 30.8177 58.0663 30.9468 57.2917 30.9468C56.517 30.9468 55.8392 30.6993 55.2582 30.2044C54.6987 29.7095 54.419 29.0317 54.419 28.1709C54.419 27.2887 54.5266 25.6318 54.7418 23.2002C54.957 20.7687 55.0645 18.8858 55.0645 17.5517C55.0645 14.2594 54.8386 11.0855 54.3867 8.02991C55.9791 8.15902 58.1201 8.22357 60.8099 8.22357C63.4997 8.22357 66.0711 8.02991 68.5242 7.64258C68.7824 8.11598 68.9115 8.68621 68.9115 9.35328C68.9115 9.99882 68.6533 10.5798 68.1368 11.0963C67.6419 11.5912 67.0179 11.8386 66.2648 11.8386C65.5331 11.8386 64.3496 11.731 62.7143 11.5159C61.1004 11.3007 59.9061 11.1931 59.1315 11.1931C58.9593 13.5386 58.8517 15.6904 58.8087 17.6485C60.0568 17.7776 61.4339 17.8422 62.9402 17.8422C64.468 17.8422 65.7914 17.6163 66.9103 17.1644C67.1685 17.6378 67.2976 18.208 67.2976 18.8751C67.2976 19.5206 67.0394 20.1124 66.523 20.6503C66.0281 21.1668 65.4363 21.425 64.7477 21.425C64.0591 21.425 63.0693 21.2959 61.7782 21.0377C60.4871 20.7579 59.4973 20.6181 58.8087 20.6181Z" fill="white"/>
<path d="M7.36678 36.001L17.5686 26.2518L10.6142 15.9514L9.49967 9.34617L34.5354 34.2673C34.5354 34.2673 42.2318 29.8546 39.3569 15.046C36.4821 0.23747 17.5686 -0.326049 9.76977 5.28452C1.97092 10.8951 -4.12968 20.6412 7.36678 36.001Z" fill="white"/>
<path d="M14.3491 27.321L9.27145 33.1264C9.09527 33.3351 8.9978 33.6145 9.00004 33.9045C9.00227 34.1945 9.10403 34.4719 9.2834 34.677C9.46276 34.882 9.7054 34.9984 9.95905 35.0009C10.2127 35.0035 10.4571 34.8921 10.6396 34.6906L15.7172 28.8853C15.8069 28.7828 15.878 28.6611 15.9265 28.5272C15.975 28.3933 16 28.2497 16 28.1048C16 27.9598 15.975 27.8163 15.9265 27.6824C15.878 27.5484 15.8069 27.4268 15.7172 27.3243C15.6276 27.2218 15.5212 27.1405 15.404 27.085C15.2869 27.0295 15.1614 27.001 15.0346 27.001C14.9078 27.001 14.7822 27.0295 14.6651 27.085C14.548 27.1405 14.4416 27.2218 14.3519 27.3243L14.3491 27.321Z" fill="black"/>
<path d="M35.6842 33.2189L23.5787 21.4429L25.3122 19.7746C26.8477 20.6672 28.8238 20.7811 29.7496 20.7811C29.9858 20.7811 30.1486 20.7811 30.2156 20.7811C30.3705 20.7729 30.5218 20.733 30.6594 20.664C30.797 20.595 30.9178 20.4985 31.0137 20.381L35.748 14.5638C35.9267 14.3438 36.0073 14.0644 35.9723 13.787C35.9373 13.5097 35.7894 13.2571 35.5613 13.0848C35.3331 12.9126 35.0433 12.8348 34.7556 12.8686C34.4679 12.9023 34.206 13.0449 34.0273 13.2649L29.6155 18.6697C28.703 18.6633 27.7984 18.5072 26.9403 18.208L33.2037 12.1722C33.4031 11.9731 33.5134 11.7065 33.5108 11.4297C33.5083 11.1529 33.3932 10.8882 33.1902 10.6925C32.9872 10.4968 32.7126 10.3858 32.4256 10.3833C32.1385 10.3809 31.8619 10.4872 31.6554 10.6795L25.392 16.7183C25.077 15.891 24.9139 15.0172 24.9099 14.1359L30.637 9.88844C30.7506 9.80396 30.8459 9.69874 30.9173 9.57877C30.9888 9.45881 31.035 9.32645 31.0534 9.18926C31.0717 9.05208 31.0619 8.91274 31.0244 8.77921C30.987 8.64569 30.9226 8.52058 30.835 8.41105C30.7473 8.30151 30.6382 8.20969 30.5138 8.14081C30.3894 8.07194 30.2521 8.02738 30.1098 8.00966C29.9675 7.99194 29.823 8.00141 29.6845 8.03754C29.546 8.07367 29.4162 8.13574 29.3026 8.22022L23.1573 12.7786C23.0332 12.8711 22.9311 12.9882 22.8578 13.122C22.7846 13.2558 22.7419 13.4032 22.7327 13.5542C22.7136 13.8805 22.6051 16.429 23.7671 18.2849L22.04 19.947L10.0687 8.31255C9.86348 8.1155 9.5857 8.00483 9.2961 8.00477C9.0067 8.00582 8.7293 8.11634 8.52355 8.31255L8.36074 8.46953C8.181 8.64482 8.06842 8.87384 8.0415 9.11896C8.01277 9.42675 8 9.7684 8 10.1008C8.02235 13.6004 9.82603 17.7001 13.36 22.2893C14.9449 24.3458 16.6932 26.2804 18.5891 28.0757C18.7046 28.1816 18.8428 28.2618 18.9939 28.3108C19.145 28.3597 19.3054 28.3761 19.4638 28.3589L21.6218 28.125C21.9097 28.0935 22.1728 27.9531 22.3533 27.7347C22.5338 27.5162 22.6169 27.2375 22.5843 26.96C22.5517 26.6824 22.4061 26.4287 22.1795 26.2547C21.9529 26.0807 21.6639 26.0006 21.376 26.032L19.7383 26.2074C18.0974 24.6162 11.3201 17.7432 10.3145 11.5443L34.1327 34.6932C34.2346 34.7911 34.3556 34.8687 34.4888 34.9215C34.6219 34.9744 34.7645 35.0014 34.9084 35.001C35.1241 35.0003 35.3348 34.9383 35.514 34.8226C35.6933 34.707 35.8331 34.5428 35.916 34.3508C35.9988 34.1588 36.021 33.9475 35.9798 33.7434C35.9386 33.5393 35.8357 33.3515 35.6842 33.2035V33.2189Z" fill="black"/>
<path d="M7.39004 37.001C7.15552 36.9996 6.92959 36.91 6.75484 36.7491C4.22082 34.3924 2.29915 31.4214 1.16442 28.1062C0.029688 24.7909 -0.282141 21.2365 0.257262 17.7657C0.796665 14.2949 2.1702 11.0178 4.25309 8.23216C6.33598 5.4465 9.0622 3.24055 12.1841 1.81472C15.306 0.388885 18.7245 -0.211635 22.1293 0.0677141C25.534 0.347063 28.8169 1.49743 31.6798 3.4143C34.5427 5.33116 36.8949 7.95378 38.5225 11.0439C40.1502 14.134 41.0018 17.5936 41 21.1085C41 26.1307 38.9178 31.2071 35.1406 35.4034C35.0558 35.4975 34.9538 35.5733 34.8405 35.6268C34.7271 35.6802 34.6047 35.7102 34.4801 35.7149C34.3555 35.7196 34.2312 35.6991 34.1143 35.6544C33.9975 35.6097 33.8903 35.5418 33.799 35.4545C33.7076 35.3672 33.6339 35.2622 33.5819 35.1455C33.53 35.0289 33.5009 34.9029 33.4963 34.7747C33.4917 34.6465 33.5117 34.5186 33.5551 34.3983C33.5985 34.278 33.6646 34.1678 33.7494 34.0738C37.2012 30.2473 39.1006 25.6365 39.1006 21.1085C39.0969 17.9232 38.3205 14.7892 36.8418 11.9909C35.3631 9.19259 33.2288 6.8185 30.6326 5.08402C28.0365 3.34955 25.0606 2.30958 21.9749 2.05846C18.8893 1.80735 15.7916 2.35303 12.9628 3.64602C10.134 4.939 7.66361 6.93836 5.77586 9.46271C3.8881 11.9871 2.64267 14.9565 2.15256 18.1016C1.66244 21.2468 1.94316 24.4681 2.96923 27.4733C3.9953 30.4785 5.73426 33.1726 8.02834 35.311C8.16572 35.4447 8.26125 35.6175 8.30275 35.8073C8.34425 35.9972 8.32982 36.1954 8.26132 36.3768C8.19282 36.5582 8.07335 36.7144 7.91816 36.8256C7.76297 36.9368 7.5791 36.9978 7.39004 37.001Z" fill="black"/>
</svg>
